<?xml version="1.0"?>
<svg width="200" height="160" xmlns="http://www.w3.org/2000/svg" xmlns:svg="http://www.w3.org/2000/svg">
 <!-- Created with SVG-edit - https://github.com/SVG-Edit/svgedit-->
 <title>Iniciales</title>
 <g class="layer">
  <title>Layer 1</title>
  <polygon cx="319.5" cy="247.5" fill="#ffffff" id="svg_7" orient="point" point="5" r="0" r2="0" shape="star" strokeWidth="0" strokecolor="#000000"/>
  <polygon cx="320.5" cy="241.5" fill="#ffffff" id="svg_9" orient="point" point="5" r="0" r2="0" shape="star" strokeWidth="0" strokecolor="none"/>
  <polygon cx="313.5" cy="254.5" fill="#ffffff" id="svg_10" orient="point" point="5" r="0" r2="0" shape="star" strokeWidth="0" strokecolor="none"/>
  <polygon cx="67.5" cy="210.5" fill="#ffffff" id="svg_17" orient="point" point="5" points="67.5,210.5 67.5,210.5 67.5,210.5 67.5,210.5 67.5,210.5 67.5,210.5 67.5,210.5 67.5,210.5 67.5,210.5 67.5,210.5 67.5,210.5 67.5,210.5 " r="0" r2="0" shape="star" stroke-width="0" strokeWidth="0" strokecolor="none"/>
  <g id="svg_21">
   <ellipse cx="99.756991" cy="89.213403" fill="#3f3f3f" id="svg_2" rx="58.079642" ry="34.896292" stroke="#000000" stroke-dasharray="null" stroke-linecap="null" stroke-linejoin="null" stroke-width="0"/>
   <text fill="#ffffff" font-family="serif" font-size="24" id="svg_1" stroke="#000000" stroke-width="0" text-anchor="middle" transform="matrix(1.77037 0 0 1.65339 -379.423 -63.8183)" x="270.433536" xml:space="preserve" y="100.403299">JJNG</text>
   <polygon cx="204.5" cy="136.5" fill="#ffffff" id="svg_4" orient="point" point="5" points="45.789188748758534,-0.1017761155962944 55.408562196539606,27.128517150878906 84.70039808993533,27.715869903564453 61.35365681716394,45.13248062133789 69.8376399947847,72.72578430175781 45.789188748758534,56.259525299072266 21.740735544224208,72.72578430175781 30.224701095271485,45.13248062133789 6.877985283106227,27.715869903564453 36.1698074669448,27.128517150878906 45.789188748758534,-0.1017761155962944 55.408562196539606,27.128517150878906 " r="79.601787" r2="31.840715" shape="star" stroke="#000000" stroke-width="0" strokeWidth="0" strokecolor="#000000"/>
   <polygon cx="204.5" cy="136.5" fill="#ffffff" id="svg_5" orient="point" point="5" points="155.78070725410726,0.7077980041503906 165.3998339298596,27.93854522705078 194.69203410577393,28.525728225708008 171.34504997799013,45.94251251220703 179.8292916786886,73.53535461425781 155.78070725410726,57.069366455078125 131.73215416565654,73.53535461425781 140.21639586635501,45.94251251220703 116.86942740663653,28.525728225708008 146.1610792002648,27.93854522705078 155.78070725410726,0.7077980041503906 165.3998339298596,27.93854522705078 " r="79.601787" r2="31.840715" shape="star" stroke="#000000" stroke-width="0" strokeWidth="0" strokecolor="#000000"/>
   <polygon cx="204.5" cy="136.5" fill="#ffffff" id="svg_18" orient="point" point="5" points="156.2946824687424,84.15570831298828 165.91382481256005,111.38645935058594 195.20599365234375,111.97360229492188 171.85902519262527,129.3904266357422 180.34326689332374,156.9832763671875 156.2946824687424,140.51727294921875 132.246145048357,156.9832763671875 140.73038674905547,129.3904266357422 117.38339478723901,111.97360229492188 146.67507008296525,111.38645935058594 156.2946824687424,84.15570831298828 165.91382481256005,111.38645935058594 " r="79.601787" r2="31.840715" shape="star" stroke="#000000" stroke-width="0" strokeWidth="0" strokecolor="#000000"/>
   <polygon cx="204.5" cy="136.5" fill="#ffffff" id="svg_19" orient="point" point="5" points="42.70529829078441,85.67292785644531 52.324421049520424,112.9036865234375 81.61659380632045,113.4908218383789 58.26962142958564,130.9076385498047 66.75386704730045,158.50048828125 42.70529829078441,142.0345001220703 18.656735409792873,158.50048828125 27.140979068999513,130.9076385498047 3.794002775248373,113.4908218383789 33.08566240290929,112.9036865234375 42.70529829078441,85.67292785644531 52.324421049520424,112.9036865234375 " r="79.601787" r2="31.840715" shape="star" stroke="#000000" stroke-width="0" strokeWidth="0" strokecolor="#000000"/>
  </g>
 </g>
</svg>